<svg width="201" height="37" viewBox="0 0 201 37" fill="none" xmlns="http://www.w3.org/2000/svg">
<path d="M15.1475 30.295C23.5132 30.295 30.295 23.5132 30.295 15.1475C30.295 6.78176 23.5132 0 15.1475 0C6.78176 0 0 6.78176 0 15.1475C0 23.5132 6.78176 30.295 15.1475 30.295Z" fill="#CA0515"/>
<mask id="mask0_10235_13406" style="mask-type:alpha" maskUnits="userSpaceOnUse" x="0" y="0" width="31" height="31">
<path d="M15.1475 30.295C23.5132 30.295 30.295 23.5132 30.295 15.1475C30.295 6.78176 23.5132 0 15.1475 0C6.78176 0 0 6.78176 0 15.1475C0 23.5132 6.78176 30.295 15.1475 30.295Z" fill="white"/>
</mask>
<g mask="url(#mask0_10235_13406)">
<path d="M7.42542 10.5925C8.29141 10.5925 8.99342 9.90368 8.99342 9.05404C8.99342 8.2044 8.29141 7.51562 7.42542 7.51562C6.55944 7.51562 5.85742 8.2044 5.85742 9.05404C5.85742 9.90368 6.55944 10.5925 7.42542 10.5925Z" fill="white"/>
<path d="M22.9274 10.5925C23.7934 10.5925 24.4954 9.90368 24.4954 9.05404C24.4954 8.2044 23.7934 7.51562 22.9274 7.51562C22.0614 7.51562 21.3594 8.2044 21.3594 9.05404C21.3594 9.90368 22.0614 10.5925 22.9274 10.5925Z" fill="white"/>
<path d="M15.3243 25.8595C18.4287 25.8595 20.9454 23.3428 20.9454 20.2383C20.9454 17.1339 18.4287 14.6172 15.3243 14.6172C12.2198 14.6172 9.70312 17.1339 9.70312 20.2383C9.70312 23.3428 12.2198 25.8595 15.3243 25.8595Z" fill="white"/>
<path d="M15.3243 36.629C18.4287 36.629 20.9454 34.1123 20.9454 31.0079C20.9454 27.9034 18.4287 25.3867 15.3243 25.3867C12.2198 25.3867 9.70312 27.9034 9.70312 31.0079C9.70312 34.1123 12.2198 36.629 15.3243 36.629Z" fill="white"/>
<path d="M21.7914 9.64453C20.0696 10.9759 18.7856 12.6326 17.9513 14.6089C16.6969 17.5733 17.5845 18.0171 18.7619 15.2775C19.5489 13.4492 20.8329 11.7451 22.6021 10.1652L21.7914 9.64453Z" fill="white"/>
<path d="M8.67977 9.64453C10.4016 10.9759 11.6856 12.6326 12.5199 14.6089C13.7743 17.5733 12.8867 18.0171 11.7093 15.2775C10.9223 13.4492 9.64424 11.7451 7.86914 10.1652L8.67977 9.64453Z" fill="white"/>
<path d="M13.3125 25.3242V26.0343H17.3361C17.3361 25.9159 17.3361 25.7976 17.3361 25.6792C17.3361 25.5609 17.3361 25.4426 17.3361 25.3242H13.3125Z" fill="white"/>
</g>
<path d="M47.1476 29.133C49.2244 29.133 51.1356 28.8253 52.8811 28.2099C54.6267 27.5946 55.9461 26.7839 56.8514 25.778V15.7606H46.8754V19.8019H50.964V23.5888C50.2185 24.2692 49.0765 24.6124 47.544 24.6124C45.7571 24.6124 44.4494 24.0029 43.6151 22.7781C42.7809 21.5533 42.3667 19.719 42.3667 17.2812V15.8079C42.3785 13.4825 42.7868 11.6956 43.5915 10.4471C44.3962 9.19864 45.5382 8.57144 47.0115 8.57144C48.2422 8.57144 49.1889 8.86138 49.8576 9.44124C50.5262 10.0211 50.964 10.9915 51.1652 12.3583H56.8278C56.5497 9.601 55.5675 7.52414 53.887 6.13365C52.2066 4.74315 49.8457 4.04495 46.8044 4.04495C44.7275 4.04495 42.8992 4.53014 41.3194 5.49461C39.7395 6.45908 38.5265 7.83774 37.6745 9.6365C36.8224 11.4353 36.4023 13.5299 36.4023 15.9263L36.4201 18.0386C36.5562 21.5237 37.5739 24.2455 39.4851 26.1981C41.3963 28.1507 43.9524 29.133 47.1476 29.133ZM68.7801 29.133C70.2653 29.133 71.6557 28.843 72.9456 28.2691C74.2355 27.6951 75.2355 26.92 75.9396 25.9496L73.3598 22.9024C72.3539 24.1509 70.9575 24.7781 69.1706 24.7781C68.0878 24.7781 67.2062 24.4881 66.5257 23.9083C65.8453 23.3284 65.4015 22.5296 65.2003 21.5119H76.4248V19.3167C76.4248 16.4884 75.6852 14.2873 74.2119 12.7074C72.7385 11.1276 70.7268 10.3347 68.1765 10.3347C66.366 10.3347 64.8039 10.7252 63.4844 11.5004C62.1649 12.2755 61.1649 13.376 60.4786 14.7902C59.7922 16.2044 59.449 17.8434 59.449 19.7013V20.1687C59.449 22.8255 60.307 24.9852 62.0288 26.6478C63.7447 28.2987 65.9991 29.133 68.7801 29.133ZM70.8924 17.9735H65.1944C65.508 15.7842 66.4902 14.6896 68.1411 14.6896C69.0345 14.6896 69.7209 14.9381 70.2002 15.4351C70.6794 15.9322 70.9102 16.6304 70.8865 17.5357V17.9735H70.8924ZM101.471 28.7957V23.6361L103.063 22.0444L107.016 28.7957H113.489L106.72 18.1215L113.069 10.6661H106.3L102.045 15.9618L101.477 16.7132V3.03906H95.8325V28.7957H101.471ZM117.589 36.1209C120.246 36.1209 122.104 34.9494 123.151 32.6003L123.471 31.8311L130.861 10.6661H124.814L121.796 20.8906L118.932 10.6661H112.897L119.199 28.9673L118.749 30.1744C118.548 30.7661 118.24 31.1743 117.82 31.4051C117.4 31.6359 116.796 31.7483 116.004 31.7483H115.264V35.7896C116.08 36.0085 116.856 36.1209 117.589 36.1209ZM136.979 28.7957L138.388 24.2396H146.446L147.872 28.7957H154.192L145.174 4.39997H139.642L130.695 28.7957H136.979ZM145.038 19.6954H139.796L142.411 11.2341L145.038 19.6954ZM160.44 28.7957V15.9913C160.979 15.1215 161.795 14.6837 162.902 14.6837C163.872 14.6837 164.546 14.8967 164.913 15.3286C165.28 15.7606 165.464 16.4292 165.464 17.3463V28.7957H171.126V17.1156C171.091 14.8494 170.611 13.1512 169.677 12.021C168.742 10.8909 167.333 10.3288 165.446 10.3288C163.245 10.3288 161.517 11.1512 160.269 12.7903L160.085 10.6601H154.789V28.7957H160.44ZM180.883 29.133C181.99 29.133 183.049 28.9732 184.067 28.6478V24.6065C183.688 24.6716 183.221 24.7071 182.658 24.7071C181.931 24.7071 181.445 24.571 181.203 24.3047C180.96 24.0384 180.836 23.5592 180.836 22.8787V14.5831H183.818V10.6601H180.836V6.15731H175.191V10.6661H172.878V14.589H175.191V23.5888C175.191 25.4526 175.653 26.8431 176.582 27.7602C177.511 28.6774 178.937 29.133 180.883 29.133ZM193.066 29.133C195.404 29.133 197.303 28.6123 198.77 27.5768C200.238 26.5413 200.971 25.1923 200.971 23.5355C200.971 21.1095 199.611 19.4291 196.883 18.4942C196.066 18.2161 195.12 17.9735 194.043 17.7724C192.966 17.5712 192.179 17.3167 191.688 17.0031C191.197 16.6895 190.948 16.2813 190.948 15.7783C190.948 15.2872 191.149 14.879 191.552 14.5476C191.954 14.2162 192.451 14.0506 193.043 14.0506C194.575 14.0506 195.338 14.7784 195.338 16.228H201.001C201.001 14.4648 200.273 13.0388 198.824 11.956C197.374 10.8732 195.451 10.3288 193.06 10.3288C190.836 10.3288 189.037 10.8672 187.664 11.9441C186.291 13.021 185.605 14.3938 185.605 16.0564C185.605 16.9972 185.848 17.8256 186.327 18.5534C186.806 19.2812 187.504 19.8966 188.422 20.4054C189.339 20.9143 190.498 21.3225 191.907 21.6361C193.315 21.9497 194.268 22.2515 194.77 22.5414C195.273 22.8314 195.522 23.216 195.522 23.6953C195.522 24.1982 195.327 24.6065 194.942 24.9201C194.557 25.2337 193.978 25.3875 193.208 25.3875C192.368 25.3875 191.682 25.1923 191.149 24.8076C190.617 24.423 190.333 23.8077 190.309 22.9734H185.031C185.031 24.0325 185.374 25.0443 186.055 26.0088C186.735 26.9733 187.688 27.7306 188.901 28.2868C190.114 28.843 191.51 29.133 193.066 29.133Z" fill="black"/>
<path d="M85.7619 28.8373C84.2768 28.8373 82.8863 28.5474 81.5964 27.9734C80.3065 27.3995 79.3065 26.6244 78.6024 25.654L81.1822 22.6067C82.1881 23.8552 83.5845 24.4824 85.3714 24.4824C86.4542 24.4824 87.3359 24.1925 88.0163 23.6126C88.6968 23.0328 89.1405 22.234 89.3417 21.2162H78.1172V19.021C78.1172 16.1927 78.8568 13.9916 80.3301 12.4118C81.8035 10.8319 83.8152 10.0391 86.3655 10.0391C88.1761 10.0391 89.7382 10.4296 91.0576 11.2047C92.3771 11.9798 93.3771 13.0804 94.0635 14.4946C94.7498 15.9087 95.093 17.5477 95.093 19.4057V19.8731C95.093 22.5298 94.2351 24.6895 92.5132 26.3522C90.7914 28.0149 88.5429 28.8373 85.7619 28.8373ZM83.6496 17.6779H89.3476C89.034 15.4886 88.0518 14.394 86.401 14.394C85.5075 14.394 84.8211 14.6425 84.3419 15.1395C83.8626 15.6365 83.6318 16.3347 83.6555 17.24V17.6779H83.6496Z" fill="black"/>
</svg>
