<svg width="16" height="16" viewBox="0 0 16 16" fill="none" xmlns="http://www.w3.org/2000/svg">
<mask id="mask0_1_1132" style="mask-type:luminance" maskUnits="userSpaceOnUse" x="0" y="0" width="16" height="16">
<path fill-rule="evenodd" clip-rule="evenodd" d="M15.3882 6.60924H7.96568V9.61694H12.2382C11.8399 11.5277 10.1743 12.6246 7.96568 12.6246C5.35873 12.6246 3.25869 10.5723 3.25869 8.02463C3.25869 5.47693 5.35873 3.42462 7.96568 3.42462C9.08811 3.42462 10.1019 3.81385 10.8985 4.45077L13.2158 2.18615C11.8037 0.983069 9.99331 0.23999 7.96568 0.23999C3.54835 0.23999 0 3.70769 0 8.02463C0 12.3416 3.54835 15.8093 7.96568 15.8093C11.9485 15.8093 15.5693 12.9785 15.5693 8.02463C15.5693 7.56463 15.4969 7.06924 15.3882 6.60924Z" fill="white"/>
</mask>
<g mask="url(#mask0_1_1132)">
<path d="M-0.724121 12.6247V3.42462L5.43118 8.02464L-0.724121 12.6247Z" fill="white"/>
</g>
<mask id="mask1_1_1132" style="mask-type:luminance" maskUnits="userSpaceOnUse" x="0" y="0" width="16" height="16">
<path fill-rule="evenodd" clip-rule="evenodd" d="M15.3882 6.60924H7.96568V9.61694H12.2382C11.8399 11.5277 10.1743 12.6246 7.96568 12.6246C5.35873 12.6246 3.25869 10.5723 3.25869 8.02463C3.25869 5.47693 5.35873 3.42462 7.96568 3.42462C9.08811 3.42462 10.1019 3.81385 10.8985 4.45077L13.2158 2.18615C11.8037 0.983069 9.99331 0.23999 7.96568 0.23999C3.54835 0.23999 0 3.70769 0 8.02463C0 12.3416 3.54835 15.8093 7.96568 15.8093C11.9485 15.8093 15.5693 12.9785 15.5693 8.02463C15.5693 7.56463 15.4969 7.06924 15.3882 6.60924Z" fill="white"/>
</mask>
<g mask="url(#mask1_1_1132)">
<path d="M-0.724121 3.42461L5.43118 8.02462L7.96571 5.86615L16.6555 4.48615V-0.467712H-0.724121V3.42461Z" fill="white"/>
</g>
<mask id="mask2_1_1132" style="mask-type:luminance" maskUnits="userSpaceOnUse" x="0" y="0" width="16" height="16">
<path fill-rule="evenodd" clip-rule="evenodd" d="M15.3882 6.60924H7.96568V9.61694H12.2382C11.8399 11.5277 10.1743 12.6246 7.96568 12.6246C5.35873 12.6246 3.25869 10.5723 3.25869 8.02463C3.25869 5.47693 5.35873 3.42462 7.96568 3.42462C9.08811 3.42462 10.1019 3.81385 10.8985 4.45077L13.2158 2.18615C11.8037 0.983069 9.99331 0.23999 7.96568 0.23999C3.54835 0.23999 0 3.70769 0 8.02463C0 12.3416 3.54835 15.8093 7.96568 15.8093C11.9485 15.8093 15.5693 12.9785 15.5693 8.02463C15.5693 7.56463 15.4969 7.06924 15.3882 6.60924Z" fill="white"/>
</mask>
<g mask="url(#mask2_1_1132)">
<path d="M-0.724121 12.6246L10.1382 4.48615L12.9986 4.84L16.6555 -0.467712V16.517H-0.724121V12.6246Z" fill="white"/>
</g>
<mask id="mask3_1_1132" style="mask-type:luminance" maskUnits="userSpaceOnUse" x="0" y="0" width="16" height="16">
<path fill-rule="evenodd" clip-rule="evenodd" d="M15.3882 6.60924H7.96568V9.61694H12.2382C11.8399 11.5277 10.1743 12.6246 7.96568 12.6246C5.35873 12.6246 3.25869 10.5723 3.25869 8.02463C3.25869 5.47693 5.35873 3.42462 7.96568 3.42462C9.08811 3.42462 10.1019 3.81385 10.8985 4.45077L13.2158 2.18615C11.8037 0.983069 9.99331 0.23999 7.96568 0.23999C3.54835 0.23999 0 3.70769 0 8.02463C0 12.3416 3.54835 15.8093 7.96568 15.8093C11.9485 15.8093 15.5693 12.9785 15.5693 8.02463C15.5693 7.56463 15.4969 7.06924 15.3882 6.60924Z" fill="white"/>
</mask>
<g mask="url(#mask3_1_1132)">
<path d="M16.6556 16.517L5.43122 8.02464L3.98291 6.96309L16.6556 3.42462V16.517Z" fill="white"/>
</g>
</svg>
