<svg width="12" height="12" viewBox="0 0 12 12" fill="none" xmlns="http://www.w3.org/2000/svg">
<path fill-rule="evenodd" clip-rule="evenodd" d="M1.06855 5.04H3.95364C4.54134 5.04 5.02219 4.57532 5.04 3.98553V1.07234C5.04 0.482553 4.55915 0 3.97145 0H1.06855C0.480848 0 0 0.482553 0 1.07234V3.96766C0 4.55745 0.480848 5.04 1.06855 5.04ZM7.54855 5.04H10.4514C11.0392 5.04 11.52 4.57532 11.52 3.98553V1.07234C11.52 0.482553 11.0392 0 10.4514 0H7.54855C6.96085 0 6.48 0.482553 6.48 1.07234V3.96766C6.48 4.55745 6.96085 5.04 7.54855 5.04ZM3.97145 11.52H1.06855C0.480848 11.52 0 11.0374 0 10.4477V7.55234C0 6.96255 0.480848 6.48 1.06855 6.48H3.97145C4.55915 6.48 5.04 6.96255 5.04 7.55234V10.4655C5.02219 11.0374 4.54134 11.52 3.97145 11.52ZM7.55234 11.52H10.4477C11.0374 11.52 11.52 11.0374 11.52 10.4655V7.55234C11.52 6.96255 11.0374 6.48 10.4477 6.48H7.55234C6.96255 6.48 6.48 6.96255 6.48 7.55234V10.4477C6.48 11.0374 6.96255 11.52 7.55234 11.52Z" fill="#5F8FE3"/>
</svg>
